# xmcd CD database file
#
# Track frame offsets:
#	150
#	15500
#	28633
#	43421
#	57802
#	74007
#	92015
#	109224
#	122185
#	139427
#	156410
#	174460
#	194501
#	215722
#	232185
#	243546
#	257990
#	275251
#	291812
#	304654
#	317597
#
# Disc length: 4472 seconds
#
# Revision: 0
# Processed by: cddbd v1.5.1PL0 Copyright (c) Steve Scherf et al.
# Submitted via: CDex 1.51
#
DISCID=4b117615
DTITLE=石野　陽子 - 石野陽子ゴールデン☆ベスト
DYEAR=2004
DGENRE=Pop
TTITLE0=テディーボーイ・ブルース
TTITLE1=さよならのバースデー
TTITLE2=ロマネスク・ヨコハマ
TTITLE3=天使になりたい
TTITLE4=雨のチャペル通り
TTITLE5=涙のポニーテイル
TTITLE6=グッバイ・ブルーサーファー
TTITLE7=スクールリングにKiss
TTITLE8=失われた夏
TTITLE9=さよならの関係
TTITLE10=ロマンティック神楽坂
TTITLE11=五月雨は涙
TTITLE12=Kissまで待てない -My World-
TTITLE13=ジェラシーには鍵を
TTITLE14=100カラットの恋
TTITLE15=ピンクのラブソング
TTITLE16=恋は夢色
TTITLE17=抱きしめてダーリン
TTITLE18=シンデレラ・ガール
TTITLE19=はじめまして
TTITLE20=いくじなしの夜
EXTD=YEAR: 2004
EXTT0=
EXTT1=
EXTT2=
EXTT3=
EXTT4=
EXTT5=
EXTT6=
EXTT7=
EXTT8=
EXTT9=
EXTT10=
EXTT11=
EXTT12=
EXTT13=
EXTT14=
EXTT15=
EXTT16=
EXTT17=
EXTT18=
EXTT19=
EXTT20=
PLAYORDER=
